# xmcd CD database file
#
# Track frame offsets:
#	187
#	17749
#	39810
#	56243
#	78015
#	104655
#	127087
#	154173
#	170209
#	184666
#	197734
#	218379
#	236103
#
# Disc length: 3313 seconds
#
# Revision: 0
# Processed by: cddbd v1.4PL0 Copyright (c) Steve Scherf et al.
# Submitted via: CDex 1.40Beta9
#
DISCID=af0cef0d
DTITLE=Various Artist - The Yoofo Club
DYEAR=1999
DGENRE=Blues
TTITLE0=Speed of Sauce-A Match Made in Space
TTITLE1=Bo Ramsey-Sidetrack Lounge
TTITLE2=The Nadas-New Start
TTITLE3=The Bone People-Why Can't You Be Respectable
TTITLE4=Patrick Hazell-Walkin' On A Tightrope
TTITLE5=The Blues Instigators-Save A Drowning Man
TTITLE6=Blue Zone-Hey Hey Momma
TTITLE7=The Blue Band-Too Close to the Fire
TTITLE8=Love Slinky-Don't Lock The Door
TTITLE9=6240-Man With Two Left Eyes
TTITLE10=Robin Jons-Alien Bolero (Bernadette's Song)
TTITLE11=Robin Jons-Aaron Smith-Here In Your Arms
TTITLE12=Willie James Shay-Gone Fishin'
EXTD=YEAR: 1999 ID3G: 0
EXTT0=
EXTT1=
EXTT2=
EXTT3=
EXTT4=
EXTT5=
EXTT6=
EXTT7=
EXTT8=
EXTT9=
EXTT10=
EXTT11=
EXTT12=
PLAYORDER=
